<svg viewBox="0 0 110 24" width="114" height="28" fill="#000" id="sym-logo">
            <path d="M40.1 23.9L35 14.8H31.8C33.7 14.6 35.3 13.9 36.6 12.8C38.3 11.4 39.2 9.6 39.2 7.5C39.2 5.4 38.3 3.6 36.6 2.2C34.9 0.7 32.7 0 30.2 0H19L12.4 17.2L5.6 0H0V23.9H1.4V2.6L9.8 23.9H11.4L19.4 2.7V23.9H24.6V14.9H29.3L34.3 23.9H40.1ZM24.6 13.7V1.2H28.5C31.3 1.2 33.2 3.7 33.2 7.5C33.2 11.3 31.3 13.8 28.5 13.8H24.6V13.7Z" fill="currentColor"></path>
            <path d="M69.5 18L67 13.4H65.4C66.3 13.3 67.1 12.9 67.8 12.4C68.7 11.7 69.1 10.8 69.1 9.7C69.1 8.6 68.7 7.8 67.8 7.1C66.9 6.4 65.9 6 64.6 6H59.2V18H61.8V13.5H64.2L66.7 18H69.5ZM61.8 12.9V6.6H63.7C65.1 6.6 66 7.8 66 9.7C66 11.6 65.1 12.8 63.7 12.8H61.8V12.9Z" fill="currentColor"></path>
            <path d="M77.3 18C75.5 18 74 17.4 72.8 16.3C71.6 15.1 71 13.7 71 12C71 10.3 71.6 8.8 72.8 7.7C74 6.5 75.5 6 77.3 6C79.1 6 80.6 6.6 81.8 7.7C83 8.9 83.6 10.3 83.6 12C83.6 13.7 83 15.2 81.8 16.3C80.6 17.5 79.1 18 77.3 18ZM77.3 17.6C78.4 17.6 79.2 17.1 79.9 16.1C80.6 15.1 80.9 13.7 80.9 12C80.9 10.3 80.6 9 79.9 7.9C79.3 6.9 78.4 6.4 77.3 6.4C76.2 6.4 75.4 6.9 74.7 7.9C74.1 8.9 73.7 10.3 73.7 12C73.7 13.7 74 15 74.7 16.1C75.3 17.1 76.2 17.6 77.3 17.6Z" fill="currentColor"></path>
            <path d="M94.8 6C94.8 6 94.8 14.3 94.8 15.8C94.2 16.7 93.2 17.2 91.9 17.2C89.7 17.2 88.3 15.8 88.3 13.4V6H85.7V13.1C85.7 14.5 86.2 15.7 87.2 16.6C88.2 17.5 89.5 17.9 91.1 17.9C92.6 17.9 93.7 17.5 94.6 16.7C94.8 16.5 95 16.3 95.1 16.1L97 18H97.4V6H94.8Z" fill="currentColor"></path>
            <path d="M105.4 6C106.7 6 107.7 6.4 108.6 7.1C109.5 7.8 109.9 8.7 109.9 9.7C109.9 10.8 109.5 11.6 108.6 12.4C107.7 13.1 106.7 13.5 105.4 13.5H102.6V18H100V6H105.4ZM104.6 12.9C106 12.9 106.9 11.7 106.9 9.8C106.9 7.9 106 6.7 104.6 6.7H102.7V12.9H104.6Z" fill="currentColor"></path>
            <path d="M54 12.8999C54 12.8999 54 14.5999 54 15.8999C53.7 16.9999 52.7 17.6999 51.3 17.6999C50.1 17.6999 49.3 17.1999 48.6 16.1999C47.9 15.1999 47.6 13.8999 47.6 12.1999C47.6 8.5999 49.3 6.4999 52.1 6.4999C53.1 6.4999 53.9 6.6999 54.5 7.1999C55.2 7.6999 55.5 8.2999 55.5 9.0999H56C56 8.1999 55.5 7.2999 54.7 6.6999C53.9 6.0999 52.8 5.8999 51.5 5.8999C49.6 5.8999 48.1 6.4999 46.8 7.5999C45.6 8.7999 45 10.2999 45 11.9999C45 13.6999 45.6 15.1999 46.8 16.3999C48 17.5999 49.6 18.0999 51.3 18.0999C52.9 18.0999 54.2 17.5999 54.8 16.6999L56.2 17.9999H56.6V12.8999H54Z" fill="currentColor"></path>
        </svg>